<svg width="200" height="101" viewBox="0 0 200 101" fill="none" xmlns="http://www.w3.org/2000/svg">
<path d="M55 46.4762H80.0154C80.0154 43.7843 80.5456 41.1187 81.5757 38.6317C82.6059 36.1447 84.1158 33.885 86.0193 31.9815C87.9227 30.078 90.1825 28.5681 92.6695 27.538C95.1565 26.5078 97.822 25.9776 100.514 25.9776C103.206 25.9776 105.871 26.5078 108.358 27.538C110.845 28.5681 113.105 30.078 115.009 31.9815C116.912 33.885 118.422 36.1447 119.452 38.6317C120.482 41.1187 121.013 43.7843 121.013 46.4762H145" stroke="#AF6550" stroke-width="2.13" stroke-linecap="round" stroke-linejoin="round"/>
<path d="M130.679 38.253L120.143 41.1094" stroke="#AF6550" stroke-width="2.13" stroke-linecap="round" stroke-linejoin="round"/>
<path d="M138.902 24.0108L118.057 36.1676" stroke="#AF6550" stroke-width="2.13" stroke-linecap="round" stroke-linejoin="round"/>
<path d="M122.594 24.0997L114.756 31.9473" stroke="#AF6550" stroke-width="2.13" stroke-linecap="round" stroke-linejoin="round"/>
<path d="M122.357 7.72261L110.477 28.7351" stroke="#AF6550" stroke-width="2.13" stroke-linecap="round" stroke-linejoin="round"/>
<path d="M108.154 16.3114L105.495 26.7485" stroke="#AF6550" stroke-width="2.13" stroke-linecap="round" stroke-linejoin="round"/>
<path d="M99.8616 2L100.178 26.1259" stroke="#AF6550" stroke-width="2.13" stroke-linecap="round" stroke-linejoin="round"/>
<path d="M91.9943 16.3114L94.8803 26.9165" stroke="#AF6550" stroke-width="2.13" stroke-linecap="round" stroke-linejoin="round"/>
<path d="M77.5346 8.38481L89.9682 29.0613" stroke="#AF6550" stroke-width="2.13" stroke-linecap="round" stroke-linejoin="round"/>
<path d="M77.841 24.6828L85.7874 32.4217" stroke="#AF6550" stroke-width="2.13" stroke-linecap="round" stroke-linejoin="round"/>
<path d="M61.4738 25.1375L82.6247 36.7507" stroke="#AF6550" stroke-width="2.13" stroke-linecap="round" stroke-linejoin="round"/>
<path d="M61.4738 25.1375L82.6247 36.7507" stroke="#AF6550" stroke-width="2.13" stroke-linecap="round" stroke-linejoin="round"/>
<path d="M70.0428 39.1228L80.7072 41.7518" stroke="#AF6550" stroke-width="2.13" stroke-linecap="round" stroke-linejoin="round"/>
<path d="M100.514 29.4467C98.2768 29.4454 96.0613 29.885 93.994 30.7402C91.9268 31.5954 90.0483 32.8496 88.4659 34.431C86.8835 36.0125 85.6283 37.8903 84.7719 39.957C83.9154 42.0238 83.4746 44.239 83.4746 46.4762H117.543C117.545 44.2395 117.105 42.0244 116.25 39.9578C115.394 37.8911 114.14 36.0132 112.558 34.4316C110.977 32.8501 109.099 31.5957 107.032 30.7404C104.966 29.885 102.751 29.4454 100.514 29.4467Z" fill="#AF6550"/>
<rect x="0.5" y="51.5" width="199" height="49" fill="white" stroke="#AF6550"/>
<rect y="76" width="200" height="25" fill="#B1ADAD"/>
<path d="M64.1247 70.9C63.1647 70.9 62.418 70.7533 61.8847 70.46C61.3514 70.1667 60.9714 69.7133 60.7447 69.1C60.5314 68.4733 60.4247 67.64 60.4247 66.6V58.9L55.4247 70H55.0247L49.8247 58.7V70H49.0247V56.8H50.9247L55.7247 67.2L60.4247 56.8H62.2247V66.6C62.2247 67.84 62.378 68.8 62.6847 69.48C63.0047 70.16 63.4847 70.5 64.1247 70.5V70.9ZM67.9183 70.2C67.4916 70.2 67.0583 70.1133 66.6183 69.94C66.1783 69.7533 65.7983 69.4533 65.4783 69.04C65.1716 68.6267 65.0183 68.08 65.0183 67.4C65.0183 66.3867 65.4849 65.6667 66.4183 65.24C67.3649 64.8133 68.5983 64.6 70.1183 64.6H70.7183C70.7183 63.2933 70.5383 62.4 70.1783 61.92C69.8183 61.44 69.2983 61.2 68.6183 61.2C68.0183 61.2 67.5383 61.3267 67.1783 61.58C66.8183 61.8333 66.5649 62.2733 66.4183 62.9H65.5183C65.5183 62.4467 65.5449 62.0933 65.5983 61.84C65.6516 61.5733 65.7916 61.3267 66.0183 61.1C66.2583 60.86 66.6516 60.6867 67.1983 60.58C67.7583 60.46 68.3649 60.4 69.0183 60.4C70.0983 60.4 70.9516 60.6933 71.5783 61.28C72.2049 61.8533 72.5183 62.96 72.5183 64.6V70H71.5183L70.8183 69.1H70.7183C70.4783 69.4067 70.1249 69.6667 69.6583 69.88C69.1916 70.0933 68.6116 70.2 67.9183 70.2ZM68.8183 69.3C69.2583 69.3 69.6249 69.1933 69.9183 68.98C70.2116 68.7667 70.4783 68.4733 70.7183 68.1V65.4H70.1183C69.1316 65.4 68.3516 65.5867 67.7783 65.96C67.2049 66.32 66.9183 66.8 66.9183 67.4C66.9183 68.0133 67.0983 68.4867 67.4583 68.82C67.8316 69.14 68.2849 69.3 68.8183 69.3ZM79.1672 70.2C78.2072 70.2 77.3939 69.9867 76.7272 69.56C76.0739 69.12 75.5805 68.5333 75.2472 67.8C74.9272 67.0533 74.7672 66.22 74.7672 65.3C74.7672 64.38 74.9272 63.5533 75.2472 62.82C75.5805 62.0733 76.0739 61.4867 76.7272 61.06C77.3939 60.62 78.2072 60.4 79.1672 60.4C80.6339 60.4 81.6005 60.6333 82.0672 61.1C82.2939 61.3267 82.4339 61.6067 82.4872 61.94C82.5405 62.26 82.5672 62.8467 82.5672 63.7H82.1672C82.1139 62.8733 81.8539 62.2533 81.3872 61.84C80.9205 61.4133 80.3139 61.2 79.5672 61.2C78.6072 61.2 77.8805 61.58 77.3872 62.34C76.9072 63.1 76.6672 64.0867 76.6672 65.3C76.6672 66.5133 76.9072 67.5 77.3872 68.26C77.8805 69.02 78.6072 69.4 79.5672 69.4C80.2472 69.4 80.8072 69.2733 81.2472 69.02C81.6872 68.7533 82.0939 68.3467 82.4672 67.8L82.8672 68.1C82.4272 68.8467 81.9072 69.3867 81.3072 69.72C80.7072 70.04 79.9939 70.2 79.1672 70.2ZM87.6152 61.4H86.6152C85.9885 61.4 85.4818 61.58 85.0952 61.94C84.7085 62.2867 84.5152 62.7733 84.5152 63.4H84.1152V62.2C84.1152 61.1333 84.6152 60.6 85.6152 60.6H92.7152V61.4H89.4152V70H87.6152V61.4ZM97.8344 70.2C96.9277 70.2 96.161 69.9867 95.5344 69.56C94.9077 69.12 94.4344 68.5333 94.1144 67.8C93.7944 67.0533 93.6344 66.22 93.6344 65.3C93.6344 64.3933 93.7944 63.5667 94.1144 62.82C94.4344 62.0733 94.8944 61.4867 95.4944 61.06C96.1077 60.62 96.821 60.4 97.6344 60.4C98.981 60.4 99.981 60.78 100.634 61.54C101.301 62.2867 101.634 63.3733 101.634 64.8L101.594 65.6H95.5344C95.5344 66.72 95.7744 67.6333 96.2544 68.34C96.7344 69.0467 97.3944 69.4 98.2344 69.4C98.861 69.4 99.3877 69.2667 99.8144 69C100.254 68.7333 100.661 68.3333 101.034 67.8L101.434 68.1C100.994 68.8333 100.481 69.3667 99.8944 69.7C99.3077 70.0333 98.621 70.2 97.8344 70.2ZM99.7344 64.8C99.7344 63.6267 99.561 62.7333 99.2144 62.12C98.8677 61.5067 98.341 61.2 97.6344 61.2C97.2344 61.2 96.8744 61.36 96.5544 61.68C96.2344 61.9867 95.981 62.4133 95.7944 62.96C95.621 63.5067 95.5344 64.12 95.5344 64.8H99.7344ZM104.24 63C104.24 62.32 104.147 61.82 103.96 61.5C103.773 61.1667 103.4 61 102.84 61H102.44V60.6H104.24C104.747 60.6 105.127 60.6733 105.38 60.82C105.647 60.9533 105.833 61.18 105.94 61.5H106.04C106.28 61.1933 106.62 60.9333 107.06 60.72C107.5 60.5067 108.06 60.4 108.74 60.4C109.887 60.4 110.773 60.8667 111.4 61.8C112.027 62.72 112.34 63.8867 112.34 65.3C112.34 66.7267 112.013 67.9 111.36 68.82C110.72 69.74 109.78 70.2 108.54 70.2C108.033 70.2 107.587 70.1467 107.2 70.04C106.813 69.9333 106.427 69.7867 106.04 69.6V73.8H104.24V63ZM107.94 69.4C108.793 69.4 109.42 69.0267 109.82 68.28C110.233 67.5333 110.44 66.54 110.44 65.3C110.44 64.0733 110.247 63.0867 109.86 62.34C109.473 61.58 108.9 61.2 108.14 61.2C107.247 61.2 106.547 61.6 106.04 62.4V68.8C106.44 68.9867 106.787 69.1333 107.08 69.24C107.373 69.3467 107.66 69.4 107.94 69.4ZM118.562 70.2C117.602 70.2 116.788 69.9867 116.122 69.56C115.468 69.12 114.975 68.5333 114.642 67.8C114.322 67.0533 114.162 66.22 114.162 65.3C114.162 64.38 114.322 63.5533 114.642 62.82C114.975 62.0733 115.468 61.4867 116.122 61.06C116.788 60.62 117.602 60.4 118.562 60.4C120.028 60.4 120.995 60.6333 121.462 61.1C121.688 61.3267 121.828 61.6067 121.882 61.94C121.935 62.26 121.962 62.8467 121.962 63.7H121.562C121.508 62.8733 121.248 62.2533 120.782 61.84C120.315 61.4133 119.708 61.2 118.962 61.2C118.002 61.2 117.275 61.58 116.782 62.34C116.302 63.1 116.062 64.0867 116.062 65.3C116.062 66.5133 116.302 67.5 116.782 68.26C117.275 69.02 118.002 69.4 118.962 69.4C119.642 69.4 120.202 69.2733 120.642 69.02C121.082 68.7533 121.488 68.3467 121.862 67.8L122.262 68.1C121.822 68.8467 121.302 69.3867 120.702 69.72C120.102 70.04 119.388 70.2 118.562 70.2ZM131.71 70.2C130.63 70.2 129.663 69.6667 128.81 68.6L126.51 65.7V70H124.71V63C124.71 62.32 124.616 61.82 124.43 61.5C124.243 61.1667 123.87 61 123.31 61H122.91V60.6H124.71C125.203 60.6 125.57 60.6667 125.81 60.8C126.063 60.92 126.243 61.1467 126.35 61.48C126.456 61.8133 126.51 62.32 126.51 63V65.4L129.01 61.9C129.316 61.4733 129.67 61.1533 130.07 60.94C130.483 60.7133 130.996 60.6 131.61 60.6H132.11V61.1C131.336 61.1 130.736 61.4 130.31 62L128.11 65.1L130.41 68C130.783 68.48 131.15 68.8533 131.51 69.12C131.883 69.3867 132.283 69.5533 132.71 69.62V70C132.416 70.1333 132.083 70.2 131.71 70.2ZM136.551 70.2C136.124 70.2 135.691 70.1133 135.251 69.94C134.811 69.7533 134.431 69.4533 134.111 69.04C133.804 68.6267 133.651 68.08 133.651 67.4C133.651 66.3867 134.118 65.6667 135.051 65.24C135.998 64.8133 137.231 64.6 138.751 64.6H139.351C139.351 63.2933 139.171 62.4 138.811 61.92C138.451 61.44 137.931 61.2 137.251 61.2C136.651 61.2 136.171 61.3267 135.811 61.58C135.451 61.8333 135.198 62.2733 135.051 62.9H134.151C134.151 62.4467 134.178 62.0933 134.231 61.84C134.284 61.5733 134.424 61.3267 134.651 61.1C134.891 60.86 135.284 60.6867 135.831 60.58C136.391 60.46 136.998 60.4 137.651 60.4C138.731 60.4 139.584 60.6933 140.211 61.28C140.838 61.8533 141.151 62.96 141.151 64.6V70H140.151L139.451 69.1H139.351C139.111 69.4067 138.758 69.6667 138.291 69.88C137.824 70.0933 137.244 70.2 136.551 70.2ZM137.451 69.3C137.891 69.3 138.258 69.1933 138.551 68.98C138.844 68.7667 139.111 68.4733 139.351 68.1V65.4H138.751C137.764 65.4 136.984 65.5867 136.411 65.96C135.838 66.32 135.551 66.8 135.551 67.4C135.551 68.0133 135.731 68.4867 136.091 68.82C136.464 69.14 136.918 69.3 137.451 69.3ZM143.94 70.2C143.607 70.2 143.24 70.1333 142.84 70V69.6C143.253 69.56 143.6 69.4 143.88 69.12C144.16 68.84 144.447 68.4667 144.74 68L145.94 65.9C145.3 65.7933 144.753 65.5133 144.3 65.06C143.86 64.5933 143.64 64.0067 143.64 63.3C143.64 61.5 144.973 60.6 147.64 60.6H152.34V61C151.78 61 151.407 61.1667 151.22 61.5C151.033 61.82 150.94 62.32 150.94 63V70H149.14V66H147.58L146.38 68.4C146.06 69.0267 145.707 69.4867 145.32 69.78C144.947 70.06 144.487 70.2 143.94 70.2ZM147.84 65.3C148.04 65.3 148.267 65.28 148.52 65.24C148.773 65.2 148.98 65.1533 149.14 65.1V61.5C148.98 61.4467 148.773 61.4 148.52 61.36C148.267 61.32 148.04 61.3 147.84 61.3C146.307 61.3 145.54 61.9667 145.54 63.3C145.54 64.6333 146.307 65.3 147.84 65.3Z" fill="#AF6550"/>
<path d="M20.2299 93.9C20.2299 93.7 20.2966 93.5333 20.4299 93.4C20.5633 93.2667 20.7299 93.2 20.9299 93.2H21.7299C22.3433 91.8667 22.7766 90.38 23.0299 88.74C23.2966 87.0867 23.4299 85.24 23.4299 83.2C23.4299 82.52 23.3366 82.02 23.1499 81.7C22.9633 81.3667 22.5899 81.2 22.0299 81.2H21.7299V80.8H31.7299V93.2H32.8299C33.0299 93.2 33.1966 93.2667 33.3299 93.4C33.4633 93.5333 33.5299 93.7 33.5299 93.9V97.6H32.6299C32.4699 96.2667 32.1966 95.3333 31.8099 94.8C31.4233 94.2667 30.8633 94 30.1299 94H23.6299C22.8966 94 22.3366 94.2667 21.9499 94.8C21.5633 95.3333 21.2899 96.2667 21.1299 97.6H20.2299V93.9ZM29.9299 93.2V81.6H24.7299C24.7299 84.36 24.6033 86.6467 24.3499 88.46C24.1099 90.2733 23.7033 91.8533 23.1299 93.2H29.9299ZM38.7855 94.2C37.8789 94.2 37.1122 93.9867 36.4855 93.56C35.8589 93.12 35.3855 92.5333 35.0655 91.8C34.7455 91.0533 34.5855 90.22 34.5855 89.3C34.5855 88.3933 34.7455 87.5667 35.0655 86.82C35.3855 86.0733 35.8455 85.4867 36.4455 85.06C37.0589 84.62 37.7722 84.4 38.5855 84.4C39.9322 84.4 40.9322 84.78 41.5855 85.54C42.2522 86.2867 42.5855 87.3733 42.5855 88.8L42.5455 89.6H36.4855C36.4855 90.72 36.7255 91.6333 37.2055 92.34C37.6855 93.0467 38.3455 93.4 39.1855 93.4C39.8122 93.4 40.3389 93.2667 40.7655 93C41.2055 92.7333 41.6122 92.3333 41.9855 91.8L42.3855 92.1C41.9455 92.8333 41.4322 93.3667 40.8455 93.7C40.2589 94.0333 39.5722 94.2 38.7855 94.2ZM40.6855 88.8C40.6855 87.6267 40.5122 86.7333 40.1655 86.12C39.8189 85.5067 39.2922 85.2 38.5855 85.2C38.1855 85.2 37.8255 85.36 37.5055 85.68C37.1855 85.9867 36.9322 86.4133 36.7455 86.96C36.5722 87.5067 36.4855 88.12 36.4855 88.8H40.6855ZM45.1712 87C45.1712 86.32 45.0778 85.82 44.8912 85.5C44.7045 85.1667 44.3312 85 43.7712 85H43.4712V84.6H45.1712C45.6645 84.6 46.0312 84.6667 46.2712 84.8C46.5245 84.92 46.7045 85.1467 46.8112 85.48C46.9178 85.8133 46.9712 86.32 46.9712 87V88.9H50.9712V84.6H52.7712V91.6C52.7712 92.28 52.8645 92.7867 53.0512 93.12C53.2378 93.44 53.6112 93.6 54.1712 93.6H54.4712V94H52.7712C52.2778 94 51.9045 93.94 51.6512 93.82C51.4112 93.6867 51.2378 93.4533 51.1312 93.12C51.0245 92.7867 50.9712 92.28 50.9712 91.6V89.7H46.9712V94H45.1712V87ZM56.2259 87C56.2259 86.32 56.1325 85.82 55.9459 85.5C55.7592 85.1667 55.3859 85 54.8259 85H54.5259V84.6H56.2259C56.7192 84.6 57.0859 84.6667 57.3259 84.8C57.5792 84.92 57.7592 85.1467 57.8659 85.48C57.9725 85.8133 58.0259 86.32 58.0259 87V92.2L62.2259 84.6H64.0259V94H62.2259V86.4L58.0259 94H56.2259V87ZM70.7629 94.2C69.8029 94.2 68.9896 93.9867 68.3229 93.56C67.6696 93.12 67.1762 92.5333 66.8429 91.8C66.5229 91.0533 66.3629 90.22 66.3629 89.3C66.3629 88.38 66.5229 87.5533 66.8429 86.82C67.1762 86.0733 67.6696 85.4867 68.3229 85.06C68.9896 84.62 69.8029 84.4 70.7629 84.4C72.2296 84.4 73.1962 84.6333 73.6629 85.1C73.8896 85.3267 74.0296 85.6067 74.0829 85.94C74.1362 86.26 74.1629 86.8467 74.1629 87.7H73.7629C73.7096 86.8733 73.4496 86.2533 72.9829 85.84C72.5162 85.4133 71.9096 85.2 71.1629 85.2C70.2029 85.2 69.4762 85.58 68.9829 86.34C68.5029 87.1 68.2629 88.0867 68.2629 89.3C68.2629 90.5133 68.5029 91.5 68.9829 92.26C69.4762 93.02 70.2029 93.4 71.1629 93.4C71.8429 93.4 72.4029 93.2733 72.8429 93.02C73.2829 92.7533 73.6896 92.3467 74.0629 91.8L74.4629 92.1C74.0229 92.8467 73.5029 93.3867 72.9029 93.72C72.3029 94.04 71.5896 94.2 70.7629 94.2ZM78.8109 94.2C78.3842 94.2 77.9509 94.1133 77.5109 93.94C77.0709 93.7533 76.6909 93.4533 76.3709 93.04C76.0642 92.6267 75.9109 92.08 75.9109 91.4C75.9109 90.3867 76.3775 89.6667 77.3109 89.24C78.2575 88.8133 79.4909 88.6 81.0109 88.6H81.6109C81.6109 87.2933 81.4309 86.4 81.0709 85.92C80.7109 85.44 80.1909 85.2 79.5109 85.2C78.9109 85.2 78.4309 85.3267 78.0709 85.58C77.7109 85.8333 77.4575 86.2733 77.3109 86.9H76.4109C76.4109 86.4467 76.4375 86.0933 76.4909 85.84C76.5442 85.5733 76.6842 85.3267 76.9109 85.1C77.1509 84.86 77.5442 84.6867 78.0909 84.58C78.6509 84.46 79.2575 84.4 79.9109 84.4C80.9909 84.4 81.8442 84.6933 82.4709 85.28C83.0975 85.8533 83.4109 86.96 83.4109 88.6V94H82.4109L81.7109 93.1H81.6109C81.3709 93.4067 81.0175 93.6667 80.5509 93.88C80.0842 94.0933 79.5042 94.2 78.8109 94.2ZM79.7109 93.3C80.1509 93.3 80.5175 93.1933 80.8109 92.98C81.1042 92.7667 81.3709 92.4733 81.6109 92.1V89.4H81.0109C80.0242 89.4 79.2442 89.5867 78.6709 89.96C78.0975 90.32 77.8109 90.8 77.8109 91.4C77.8109 92.0133 77.9909 92.4867 78.3509 92.82C78.7242 93.14 79.1775 93.3 79.7109 93.3ZM99.0398 88.6C98.7331 88.7467 98.3264 88.8533 97.8198 88.92C97.3264 88.9733 96.8331 89 96.3398 89C95.3264 89 94.4664 88.8933 93.7598 88.68C93.0531 88.4667 92.4864 88.0533 92.0598 87.44C91.6464 86.8133 91.4398 85.9333 91.4398 84.8V83.2C91.4398 82.52 91.3464 82.02 91.1598 81.7C90.9731 81.3667 90.5998 81.2 90.0398 81.2H89.8398V80.8H91.6398C92.1331 80.8 92.4998 80.8667 92.7398 81C92.9931 81.12 93.1731 81.3467 93.2798 81.68C93.3864 82.0133 93.4398 82.52 93.4398 83.2V85C93.4398 85.8533 93.5464 86.5133 93.7598 86.98C93.9864 87.4467 94.3131 87.7667 94.7398 87.94C95.1664 88.1133 95.7331 88.2 96.4398 88.2C96.8931 88.2 97.3598 88.1667 97.8398 88.1C98.3198 88.0333 98.7198 87.9333 99.0398 87.8V80.8H100.84V94H99.0398V88.6ZM104.038 87C104.038 86.32 103.945 85.82 103.758 85.5C103.572 85.1667 103.198 85 102.638 85H102.338V84.6H104.038C104.532 84.6 104.898 84.6667 105.138 84.8C105.392 84.92 105.572 85.1467 105.678 85.48C105.785 85.8133 105.838 86.32 105.838 87V92.2L110.038 84.6H111.838V94H110.038V86.4L105.838 94H104.038V87ZM118.575 94.2C117.615 94.2 116.802 93.9867 116.135 93.56C115.482 93.12 114.989 92.5333 114.655 91.8C114.335 91.0533 114.175 90.22 114.175 89.3C114.175 88.38 114.335 87.5533 114.655 86.82C114.989 86.0733 115.482 85.4867 116.135 85.06C116.802 84.62 117.615 84.4 118.575 84.4C120.042 84.4 121.009 84.6333 121.475 85.1C121.702 85.3267 121.842 85.6067 121.895 85.94C121.949 86.26 121.975 86.8467 121.975 87.7H121.575C121.522 86.8733 121.262 86.2533 120.795 85.84C120.329 85.4133 119.722 85.2 118.975 85.2C118.015 85.2 117.289 85.58 116.795 86.34C116.315 87.1 116.075 88.0867 116.075 89.3C116.075 90.5133 116.315 91.5 116.795 92.26C117.289 93.02 118.015 93.4 118.975 93.4C119.655 93.4 120.215 93.2733 120.655 93.02C121.095 92.7533 121.502 92.3467 121.875 91.8L122.275 92.1C121.835 92.8467 121.315 93.3867 120.715 93.72C120.115 94.04 119.402 94.2 118.575 94.2ZM127.023 85.4H126.023C125.397 85.4 124.89 85.58 124.503 85.94C124.117 86.2867 123.923 86.7733 123.923 87.4H123.523V86.2C123.523 85.1333 124.023 84.6 125.023 84.6H132.123V85.4H128.823V94H127.023V85.4ZM133.602 94.2C133.269 94.2 132.902 94.1333 132.502 94V93.6C132.915 93.56 133.262 93.4 133.542 93.12C133.822 92.84 134.109 92.4667 134.402 92L135.602 89.9C134.962 89.7933 134.415 89.5133 133.962 89.06C133.522 88.5933 133.302 88.0067 133.302 87.3C133.302 85.5 134.635 84.6 137.302 84.6H142.002V85C141.442 85 141.069 85.1667 140.882 85.5C140.695 85.82 140.602 86.32 140.602 87V94H138.802V90H137.242L136.042 92.4C135.722 93.0267 135.369 93.4867 134.982 93.78C134.609 94.06 134.149 94.2 133.602 94.2ZM137.502 89.3C137.702 89.3 137.929 89.28 138.182 89.24C138.435 89.2 138.642 89.1533 138.802 89.1V85.5C138.642 85.4467 138.435 85.4 138.182 85.36C137.929 85.32 137.702 85.3 137.502 85.3C135.969 85.3 135.202 85.9667 135.202 87.3C135.202 88.6333 135.969 89.3 137.502 89.3ZM151.137 94.2C150.057 94.2 149.091 93.6667 148.237 92.6L145.937 89.7V94H144.137V87C144.137 86.32 144.044 85.82 143.857 85.5C143.671 85.1667 143.297 85 142.737 85H142.337V84.6H144.137C144.631 84.6 144.997 84.6667 145.237 84.8C145.491 84.92 145.671 85.1467 145.777 85.48C145.884 85.8133 145.937 86.32 145.937 87V89.4L148.437 85.9C148.744 85.4733 149.097 85.1533 149.497 84.94C149.911 84.7133 150.424 84.6 151.037 84.6H151.537V85.1C150.764 85.1 150.164 85.4 149.737 86L147.537 89.1L149.837 92C150.211 92.48 150.577 92.8533 150.937 93.12C151.311 93.3867 151.711 93.5533 152.137 93.62V94C151.844 94.1333 151.511 94.2 151.137 94.2ZM156.876 94.2C155.97 94.2 155.183 93.9867 154.516 93.56C153.85 93.12 153.343 92.5267 152.996 91.78C152.65 91.0333 152.476 90.2067 152.476 89.3C152.476 88.3933 152.65 87.5667 152.996 86.82C153.343 86.0733 153.85 85.4867 154.516 85.06C155.183 84.62 155.97 84.4 156.876 84.4C157.783 84.4 158.57 84.62 159.236 85.06C159.903 85.4867 160.41 86.0733 160.756 86.82C161.103 87.5667 161.276 88.3933 161.276 89.3C161.276 90.2067 161.103 91.0333 160.756 91.78C160.41 92.5267 159.903 93.12 159.236 93.56C158.57 93.9867 157.783 94.2 156.876 94.2ZM156.876 93.4C157.37 93.4 157.803 93.22 158.176 92.86C158.563 92.5 158.856 92.0067 159.056 91.38C159.27 90.7533 159.376 90.06 159.376 89.3C159.376 88.54 159.27 87.8467 159.056 87.22C158.856 86.5933 158.563 86.1 158.176 85.74C157.803 85.38 157.37 85.2 156.876 85.2C156.383 85.2 155.943 85.38 155.556 85.74C155.183 86.1 154.89 86.5933 154.676 87.22C154.476 87.8467 154.376 88.54 154.376 89.3C154.376 90.06 154.476 90.7533 154.676 91.38C154.89 92.0067 155.183 92.5 155.556 92.86C155.943 93.22 156.383 93.4 156.876 93.4ZM163.822 87C163.822 86.32 163.728 85.82 163.542 85.5C163.355 85.1667 162.982 85 162.422 85H162.222V84.6H167.122C168.242 84.6 169.155 84.7867 169.862 85.16C170.568 85.5333 170.922 86.1467 170.922 87C170.922 87.5733 170.762 88.0333 170.442 88.38C170.122 88.7133 169.615 88.9533 168.922 89.1C169.695 89.2467 170.288 89.52 170.702 89.92C171.115 90.3067 171.322 90.8 171.322 91.4C171.322 92.3467 170.948 93.02 170.202 93.42C169.468 93.8067 168.442 94 167.122 94H163.822V87ZM166.722 88.7C167.442 88.7 168.002 88.5533 168.402 88.26C168.815 87.9667 169.022 87.5467 169.022 87C169.022 86.4533 168.828 86.0333 168.442 85.74C168.055 85.4467 167.548 85.3 166.922 85.3C166.722 85.3 166.495 85.32 166.242 85.36C165.988 85.4 165.782 85.4467 165.622 85.5V88.7H166.722ZM166.922 93.3C168.588 93.3 169.422 92.6667 169.422 91.4C169.422 90.1333 168.522 89.5 166.722 89.5H165.622V93.1C165.782 93.1533 165.988 93.2 166.242 93.24C166.495 93.28 166.722 93.3 166.922 93.3ZM175.881 94.2C175.455 94.2 175.021 94.1133 174.581 93.94C174.141 93.7533 173.761 93.4533 173.441 93.04C173.135 92.6267 172.981 92.08 172.981 91.4C172.981 90.3867 173.448 89.6667 174.381 89.24C175.328 88.8133 176.561 88.6 178.081 88.6H178.681C178.681 87.2933 178.501 86.4 178.141 85.92C177.781 85.44 177.261 85.2 176.581 85.2C175.981 85.2 175.501 85.3267 175.141 85.58C174.781 85.8333 174.528 86.2733 174.381 86.9H173.481C173.481 86.4467 173.508 86.0933 173.561 85.84C173.615 85.5733 173.755 85.3267 173.981 85.1C174.221 84.86 174.615 84.6867 175.161 84.58C175.721 84.46 176.328 84.4 176.981 84.4C178.061 84.4 178.915 84.6933 179.541 85.28C180.168 85.8533 180.481 86.96 180.481 88.6V94H179.481L178.781 93.1H178.681C178.441 93.4067 178.088 93.6667 177.621 93.88C177.155 94.0933 176.575 94.2 175.881 94.2ZM176.781 93.3C177.221 93.3 177.588 93.1933 177.881 92.98C178.175 92.7667 178.441 92.4733 178.681 92.1V89.4H178.081C177.095 89.4 176.315 89.5867 175.741 89.96C175.168 90.32 174.881 90.8 174.881 91.4C174.881 92.0133 175.061 92.4867 175.421 92.82C175.795 93.14 176.248 93.3 176.781 93.3Z" fill="white"/>
</svg>
